<svg width="20" height="22" viewBox="0 0 20 22" fill="none" xmlns="http://www.w3.org/2000/svg">
<path d="M0 0H9.28571C10.6927 0 12.086 0.257849 13.3859 0.758826C14.6858 1.2598 15.8669 1.9941 16.8619 2.91978C17.8568 3.84546 18.646 4.94441 19.1844 6.15388C19.7229 7.36334 20 8.65964 20 9.96875V15.1533L10.3571 15.125V15.1533C9.69324 15.1533 9.03585 15.2811 8.42248 15.5296C7.80912 15.778 7.2518 16.1422 6.78236 16.6013C6.31291 17.0604 5.94052 17.6054 5.68646 18.2052C5.52831 18.5785 5.41794 18.9686 5.35714 19.3665V22H0V20.0971C0 18.767 0.267895 17.45 0.788391 16.2211C1.30889 14.9923 2.07179 13.8758 3.03354 12.9353C3.99529 11.9948 5.13705 11.2487 6.39364 10.7397C7.54013 10.2753 8.76172 10.0166 10 9.97477V9.96875H14.5156C14.5156 9.32975 14.3803 8.697 14.1175 8.10664C13.8546 7.51628 13.4694 6.97986 12.9838 6.52802C12.4981 6.07618 11.9216 5.71775 11.2871 5.47322C10.8921 5.321 10.4795 5.21477 10.0586 5.15625H6.07143V8.40168C5.32627 8.52923 4.59587 8.73653 3.89364 9.02098C2.63705 9.52997 1.49529 10.276 0.533537 11.2165C0.348203 11.3978 0.170254 11.5855 0 11.7794V0Z" fill="#FF5263"/>
</svg>
