<svg xmlns="http://www.w3.org/2000/svg" width="181" height="46" viewBox="0 0 181 46" fill="none">
    <path fill-rule="evenodd" clip-rule="evenodd" d="M19.2907 7.59976C20.0996 9.17042 20.8268 10.5966 21.473 11.8783C21.473 11.8783 19.914 14.7605 16.7958 20.526C16.7958 20.526 15.7646 22.8354 14.6728 26.1582C14.6728 26.1582 19.1256 26.3524 28.0594 26.5613C28.0594 26.5613 28.5529 27.3821 29.5401 29.0232C29.5401 29.0232 22.2391 28.9634 7.63568 28.8432C8.42475 27.0749 9.38229 25.3536 10.2865 23.6187C13.327 18.2841 16.3865 12.9795 19.2901 7.59976H19.2907Z" fill="url(#paint0_linear_3_30)"/>
    <path fill-rule="evenodd" clip-rule="evenodd" d="M60.7041 44.1168C60.7397 44.2603 60.7897 44.4307 60.8528 44.6259C56.4731 46.1651 52.2771 46.2629 48.1646 45.6439C43.4459 44.8271 39.0623 42.4007 35.0136 38.364C28.9347 31.7285 23.7495 17.988 19.4178 9.56179C17.7107 5.82932 15.2954 3.39829 12.1734 2.26871C10.6992 1.64511 8.58405 1.64511 5.82921 2.26871C5.81276 1.91229 5.80487 1.73383 5.80487 1.73383C8.96905 0.467875 12.0753 -0.104522 15.123 0.0156346C18.6952 0.26254 21.6856 1.48389 24.0937 3.68119C26.3595 5.59255 28.5517 8.57467 30.6688 12.6286C33.9508 18.8909 35.5921 22.0216 35.5921 22.0216C39.3696 29.4876 42.4759 34.7314 44.9102 37.7531C49.6308 42.9873 54.895 45.108 60.7041 44.1168Z" fill="url(#paint1_linear_3_30)"/>
    <path fill-rule="evenodd" clip-rule="evenodd" d="M0.360332 34.2255C-0.457036 37.601 0.116169 40.9649 2.07996 44.3176C2.47614 44.2837 2.67489 44.2669 2.67489 44.2669C2.02073 42.423 2.05956 40.5096 2.79071 38.5268C3.70482 35.9771 6.01742 33.614 9.72914 31.4375C12.9723 29.4496 16.8268 27.5996 21.294 25.8885C24.7524 24.4288 26.4819 23.6993 26.4819 23.6993C32.3193 21.2895 35.2373 20.0849 35.2373 20.0849C39.8414 18.2131 43.3439 16.1132 45.7447 13.7845C47.5044 12.0542 48.4844 9.97551 48.6851 7.54854C48.6884 5.68788 48.3244 4.04168 47.5946 2.61044C47.2116 1.7881 46.7818 0.986536 46.306 0.205261C45.9645 0.323897 45.794 0.383222 45.794 0.383222C46.7983 2.8178 46.7266 4.76058 45.5795 6.21261C44.6496 7.67123 42.9865 9.00309 40.5904 10.2092C38.1554 11.2252 35.1149 12.4476 31.4703 13.8748C24.5102 16.5563 21.0295 17.8968 21.0295 17.8968C15.5435 19.946 11.7219 21.6769 9.56395 23.0899C4.56695 26.1328 1.49886 29.845 0.361647 34.2265L0.360332 34.2255Z" fill="url(#paint2_linear_3_30)"/>
    <path d="M52.5163 23.2628L58.6248 7.25195H64.2836L70.3921 23.2628H65.4208L62.9617 15.268C62.6972 14.4725 62.4326 13.6132 62.1681 12.7107C61.9305 11.8078 61.6653 10.9484 61.4008 10.1317H61.2954C61.0577 10.9697 60.8194 11.8296 60.5549 12.732C60.2904 13.6132 60.0259 14.4725 59.7882 15.268L57.3285 23.2628H52.5156H52.5163ZM56.6678 19.5881V16.6222H66.1875V19.5881H56.6678Z" fill="#00AFEF"/>
    <path d="M71.5874 23.2628V11.0341H75.395L75.7364 12.5815H75.8151C76.4191 12.0871 77.0758 11.6572 77.7845 11.2917C78.4933 10.9266 79.334 10.733 80.3581 10.733C81.3821 10.733 82.2222 10.9048 82.8789 11.2486C83.5356 11.5923 84.0604 12.0866 84.4544 12.7528C85.1111 12.2154 85.7938 11.7424 86.5292 11.3343C87.2646 10.9256 88.1313 10.7325 89.1287 10.7325C90.7568 10.7325 91.9389 11.1837 92.6736 12.0648C93.4357 12.946 93.803 14.1709 93.803 15.6969V23.2618H89.1287V16.1694C89.1287 15.3314 88.9974 14.7509 88.7087 14.4502C88.446 14.1491 88.026 13.999 87.4219 13.999C87.0806 13.999 86.7132 14.0847 86.3185 14.2783C85.9245 14.4502 85.4785 14.7296 85.0318 15.0951V23.2618H80.3574V16.1694C80.3574 15.3314 80.2261 14.7509 79.9374 14.4502C79.6487 14.1491 79.2287 13.999 78.624 13.999C78.2826 13.999 77.9153 14.0847 77.5212 14.2783C77.1272 14.4502 76.7072 14.7296 76.2605 15.0951V23.2618H71.5862L71.5874 23.2628Z" fill="#00AFEF"/>
    <path d="M97.4551 23.2628V11.0341H102.129V23.2628H97.4551ZM99.7926 9.33621C99.0046 9.33621 98.3745 9.16434 97.9018 8.79931C97.4291 8.43376 97.1924 7.96125 97.1924 7.35945C97.1924 6.77945 97.4285 6.30642 97.9018 5.94088C98.3745 5.57534 99.0046 5.40347 99.7926 5.40347C100.554 5.40347 101.184 5.57534 101.657 5.94088C102.156 6.30592 102.392 6.77894 102.392 7.35945C102.392 7.96125 102.156 8.43376 101.657 8.79931C101.184 9.16434 100.554 9.33621 99.7926 9.33621Z" fill="#00AFEF"/>
    <path d="M112.477 23.5634C111.085 23.5634 109.825 23.3053 108.695 22.8115C107.566 22.2959 106.673 21.5648 106.016 20.598C105.36 19.6312 105.044 18.492 105.044 17.1378C105.044 15.7841 105.412 14.6449 106.147 13.6994C106.856 12.7325 107.828 12.0014 109.009 11.5071C110.217 10.9915 111.504 10.7335 112.896 10.7335C113.815 10.7335 114.63 10.8622 115.338 11.0985C116.047 11.3353 116.704 11.6359 117.255 12.044L115.075 14.4725C114.734 14.2363 114.419 14.0857 114.104 13.9782C113.814 13.8707 113.5 13.8276 113.184 13.8276C112.502 13.8276 111.898 13.9564 111.399 14.2363C110.899 14.5156 110.506 14.9025 110.217 15.3968C109.955 15.8911 109.823 16.4716 109.823 17.1373C109.823 17.8035 109.955 18.4053 110.243 18.8996C110.533 19.3939 110.9 19.7807 111.373 20.0601C111.872 20.3394 112.397 20.4687 113.001 20.4687C113.474 20.4687 113.92 20.3825 114.366 20.2325C114.813 20.0606 115.207 19.8456 115.601 19.6089L117.413 22.1235C116.678 22.6604 115.864 23.026 114.971 23.2409C114.104 23.4559 113.264 23.5634 112.476 23.5634H112.477Z" fill="#00AFEF"/>
    <path d="M124.504 23.5634C122.85 23.5634 121.668 23.1122 120.933 22.2098C120.197 21.3286 119.83 20.125 119.83 18.5995V11.0346H124.504V18.1269C124.504 18.965 124.636 19.5242 124.924 19.8462C125.213 20.1468 125.633 20.2974 126.237 20.2974C126.763 20.2974 127.209 20.2112 127.603 20.018C127.971 19.8249 128.338 19.5024 128.732 19.0512V11.0351H133.406V23.2638H129.599L129.257 21.5877H129.153C128.549 22.1895 127.866 22.662 127.131 23.0275C126.395 23.3926 125.528 23.5644 124.504 23.5644V23.5634Z" fill="#00AFEF"/>
    <path d="M141.627 23.5634C140.655 23.5634 139.657 23.4134 138.607 23.0909C137.556 22.7685 136.637 22.3603 135.875 21.8442L137.95 19.4588C138.633 19.8669 139.289 20.1894 139.919 20.4256C140.523 20.6406 141.128 20.7481 141.732 20.7481C142.336 20.7481 142.782 20.6619 143.071 20.49C143.36 20.3182 143.491 20.0814 143.491 19.7808C143.491 19.544 143.36 19.3295 143.071 19.1572C142.782 18.9853 142.414 18.8347 141.968 18.6846C141.522 18.5341 141.023 18.3622 140.524 18.2116C139.92 18.0185 139.343 17.7604 138.765 17.4592C138.161 17.1586 137.688 16.7718 137.294 16.3205C136.9 15.8475 136.716 15.2675 136.716 14.6013C136.716 13.8277 136.952 13.1402 137.451 12.5597C137.924 11.9797 138.58 11.5279 139.447 11.206C140.313 10.8835 141.338 10.733 142.493 10.733C143.674 10.733 144.699 10.8835 145.565 11.206C146.432 11.5284 147.193 11.8935 147.824 12.3021L145.749 14.58C145.198 14.2576 144.672 14.0213 144.147 13.8277C143.648 13.6345 143.149 13.5483 142.65 13.5483C142.099 13.5483 141.705 13.634 141.442 13.7845C141.206 13.9351 141.075 14.1496 141.075 14.4294C141.075 14.6657 141.206 14.8807 141.442 15.0312C141.705 15.1813 142.046 15.3319 142.493 15.4612C142.939 15.5899 143.412 15.7405 143.911 15.8911C144.384 16.0412 144.856 16.2135 145.303 16.4067C145.776 16.5999 146.196 16.8366 146.59 17.116C146.984 17.3954 147.273 17.7391 147.509 18.1259C147.745 18.5346 147.851 19.0071 147.851 19.5658C147.851 20.3177 147.615 20.9844 147.142 21.6074C146.669 22.2092 145.986 22.6823 145.068 23.0473C144.148 23.391 142.993 23.5629 141.627 23.5629L141.627 23.5634Z" fill="#00AFEF"/>
    <path d="M81.2461 35.6396V37H76.249V35.6396H81.2461ZM76.7275 27.0469V37H75.0117V27.0469H76.7275ZM84.2719 29.6035V37H82.6176V29.6035H84.2719ZM82.5082 27.6621C82.5082 27.4115 82.5902 27.2041 82.7543 27.04C82.9229 26.8714 83.1553 26.7871 83.4516 26.7871C83.7432 26.7871 83.9734 26.8714 84.142 27.04C84.3106 27.2041 84.3949 27.4115 84.3949 27.6621C84.3949 27.9082 84.3106 28.1133 84.142 28.2773C83.9734 28.4414 83.7432 28.5234 83.4516 28.5234C83.1553 28.5234 82.9229 28.4414 82.7543 28.2773C82.5902 28.1133 82.5082 27.9082 82.5082 27.6621ZM88.4051 37H86.7576V28.8926C86.7576 28.3411 86.8602 27.8786 87.0652 27.5049C87.2749 27.1266 87.5734 26.8418 87.9607 26.6504C88.3481 26.4544 88.8061 26.3564 89.3348 26.3564C89.4988 26.3564 89.6606 26.3678 89.8201 26.3906C89.9796 26.4089 90.1346 26.4385 90.285 26.4795L90.2439 27.751C90.1528 27.7282 90.0525 27.7122 89.9432 27.7031C89.8383 27.694 89.7244 27.6895 89.6014 27.6895C89.3507 27.6895 89.1342 27.7373 88.952 27.833C88.7742 27.9242 88.6375 28.0586 88.5418 28.2363C88.4507 28.4141 88.4051 28.6328 88.4051 28.8926V37ZM89.9295 29.6035V30.8066H85.6229V29.6035H89.9295ZM94.3225 37.1367C93.7756 37.1367 93.2811 37.0479 92.8391 36.8701C92.4016 36.6878 92.0279 36.4349 91.718 36.1113C91.4126 35.7878 91.1779 35.4072 91.0139 34.9697C90.8498 34.5322 90.7678 34.0605 90.7678 33.5547V33.2812C90.7678 32.7025 90.8521 32.1784 91.0207 31.709C91.1893 31.2396 91.424 30.8385 91.7248 30.5059C92.0256 30.1686 92.3811 29.9111 92.7912 29.7334C93.2014 29.5557 93.6457 29.4668 94.1242 29.4668C94.6529 29.4668 95.1154 29.5557 95.5119 29.7334C95.9084 29.9111 96.2365 30.1618 96.4963 30.4854C96.7606 30.8044 96.9566 31.1849 97.0842 31.627C97.2163 32.069 97.2824 32.5566 97.2824 33.0898V33.7939H91.5676V32.6113H95.6555V32.4814C95.6464 32.1852 95.5871 31.9072 95.4777 31.6475C95.3729 31.3877 95.2111 31.1781 94.9924 31.0186C94.7736 30.859 94.482 30.7793 94.1174 30.7793C93.8439 30.7793 93.6001 30.8385 93.3859 30.957C93.1763 31.071 93.0008 31.2373 92.8596 31.4561C92.7183 31.6748 92.6089 31.9391 92.5314 32.249C92.4585 32.5544 92.4221 32.8984 92.4221 33.2812V33.5547C92.4221 33.8783 92.4654 34.179 92.552 34.457C92.6431 34.7305 92.7753 34.9697 92.9484 35.1748C93.1216 35.3799 93.3312 35.5417 93.5773 35.6602C93.8234 35.7741 94.1037 35.8311 94.4182 35.8311C94.8146 35.8311 95.1678 35.7513 95.4777 35.5918C95.7876 35.4323 96.0565 35.2067 96.2844 34.915L97.1525 35.7559C96.993 35.9883 96.7857 36.2116 96.5305 36.4258C96.2753 36.6354 95.9631 36.8063 95.5939 36.9385C95.2294 37.0706 94.8055 37.1367 94.3225 37.1367ZM107.654 34.4365C107.654 34.2314 107.622 34.0492 107.559 33.8896C107.499 33.7301 107.392 33.5843 107.237 33.4521C107.082 33.32 106.864 33.1924 106.581 33.0693C106.303 32.9417 105.948 32.8118 105.515 32.6797C105.041 32.5339 104.603 32.3721 104.202 32.1943C103.806 32.012 103.459 31.8024 103.163 31.5654C102.867 31.3239 102.637 31.0482 102.473 30.7383C102.309 30.4238 102.227 30.0615 102.227 29.6514C102.227 29.2458 102.311 28.8766 102.479 28.5439C102.653 28.2113 102.896 27.9242 103.211 27.6826C103.53 27.4365 103.906 27.2474 104.339 27.1152C104.772 26.9785 105.25 26.9102 105.774 26.9102C106.513 26.9102 107.148 27.0469 107.682 27.3203C108.219 27.5938 108.632 27.9606 108.919 28.4209C109.211 28.8812 109.356 29.3893 109.356 29.9453H107.654C107.654 29.6172 107.584 29.3278 107.442 29.0771C107.306 28.8219 107.096 28.6214 106.813 28.4756C106.535 28.3298 106.182 28.2568 105.754 28.2568C105.348 28.2568 105.011 28.3184 104.742 28.4414C104.473 28.5645 104.273 28.7308 104.141 28.9404C104.008 29.1501 103.942 29.387 103.942 29.6514C103.942 29.8382 103.986 30.0091 104.072 30.1641C104.159 30.3145 104.291 30.4557 104.469 30.5879C104.646 30.7155 104.87 30.8363 105.139 30.9502C105.408 31.0641 105.724 31.1735 106.089 31.2783C106.64 31.4424 107.121 31.6247 107.531 31.8252C107.941 32.0212 108.283 32.2445 108.557 32.4951C108.83 32.7458 109.035 33.0306 109.172 33.3496C109.309 33.6641 109.377 34.0218 109.377 34.4229C109.377 34.8421 109.293 35.2204 109.124 35.5576C108.955 35.8903 108.714 36.1751 108.399 36.4121C108.09 36.6445 107.716 36.8245 107.278 36.9521C106.845 37.0752 106.362 37.1367 105.829 37.1367C105.351 37.1367 104.879 37.0729 104.414 36.9453C103.954 36.8177 103.535 36.624 103.156 36.3643C102.778 36.0999 102.477 35.7718 102.254 35.3799C102.031 34.9834 101.919 34.5208 101.919 33.9922H103.635C103.635 34.3158 103.689 34.5915 103.799 34.8193C103.913 35.0472 104.07 35.234 104.271 35.3799C104.471 35.5212 104.703 35.626 104.968 35.6943C105.237 35.7627 105.524 35.7969 105.829 35.7969C106.23 35.7969 106.565 35.7399 106.834 35.626C107.107 35.512 107.312 35.3525 107.449 35.1475C107.586 34.9424 107.654 34.7054 107.654 34.4365ZM113.852 35.8242C114.121 35.8242 114.362 35.7718 114.577 35.667C114.795 35.5576 114.971 35.4072 115.103 35.2158C115.24 35.0244 115.315 34.8034 115.329 34.5527H116.88C116.871 35.0312 116.73 35.4665 116.456 35.8584C116.183 36.2503 115.821 36.5625 115.37 36.7949C114.918 37.0228 114.419 37.1367 113.872 37.1367C113.307 37.1367 112.815 37.041 112.396 36.8496C111.977 36.6536 111.628 36.3848 111.35 36.043C111.072 35.7012 110.862 35.307 110.721 34.8604C110.584 34.4137 110.516 33.9352 110.516 33.4248V33.1855C110.516 32.6751 110.584 32.1966 110.721 31.75C110.862 31.2988 111.072 30.9023 111.35 30.5605C111.628 30.2188 111.977 29.9521 112.396 29.7607C112.815 29.5648 113.305 29.4668 113.866 29.4668C114.458 29.4668 114.978 29.5853 115.424 29.8223C115.871 30.0547 116.222 30.3805 116.477 30.7998C116.737 31.2145 116.871 31.6976 116.88 32.249H115.329C115.315 31.9756 115.246 31.7295 115.123 31.5107C115.005 31.2874 114.836 31.1097 114.618 30.9775C114.403 30.8454 114.146 30.7793 113.845 30.7793C113.512 30.7793 113.237 30.8477 113.018 30.9844C112.799 31.1165 112.628 31.2988 112.505 31.5312C112.382 31.7591 112.293 32.0166 112.239 32.3037C112.189 32.5863 112.163 32.8802 112.163 33.1855V33.4248C112.163 33.7301 112.189 34.0264 112.239 34.3135C112.289 34.6006 112.375 34.8581 112.498 35.0859C112.626 35.3092 112.799 35.4893 113.018 35.626C113.237 35.7581 113.515 35.8242 113.852 35.8242ZM120.009 29.6035V37H118.354V29.6035H120.009ZM118.245 27.6621C118.245 27.4115 118.327 27.2041 118.491 27.04C118.66 26.8714 118.892 26.7871 119.188 26.7871C119.48 26.7871 119.71 26.8714 119.879 27.04C120.047 27.2041 120.132 27.4115 120.132 27.6621C120.132 27.9082 120.047 28.1133 119.879 28.2773C119.71 28.4414 119.48 28.5234 119.188 28.5234C118.892 28.5234 118.66 28.4414 118.491 28.2773C118.327 28.1133 118.245 27.9082 118.245 27.6621ZM125.174 37.1367C124.627 37.1367 124.133 37.0479 123.691 36.8701C123.253 36.6878 122.879 36.4349 122.57 36.1113C122.264 35.7878 122.029 35.4072 121.865 34.9697C121.701 34.5322 121.619 34.0605 121.619 33.5547V33.2812C121.619 32.7025 121.704 32.1784 121.872 31.709C122.041 31.2396 122.276 30.8385 122.576 30.5059C122.877 30.1686 123.233 29.9111 123.643 29.7334C124.053 29.5557 124.497 29.4668 124.976 29.4668C125.504 29.4668 125.967 29.5557 126.363 29.7334C126.76 29.9111 127.088 30.1618 127.348 30.4854C127.612 30.8044 127.808 31.1849 127.936 31.627C128.068 32.069 128.134 32.5566 128.134 33.0898V33.7939H122.419V32.6113H126.507V32.4814C126.498 32.1852 126.439 31.9072 126.329 31.6475C126.224 31.3877 126.063 31.1781 125.844 31.0186C125.625 30.859 125.334 30.7793 124.969 30.7793C124.696 30.7793 124.452 30.8385 124.237 30.957C124.028 31.071 123.852 31.2373 123.711 31.4561C123.57 31.6748 123.46 31.9391 123.383 32.249C123.31 32.5544 123.274 32.8984 123.274 33.2812V33.5547C123.274 33.8783 123.317 34.179 123.404 34.457C123.495 34.7305 123.627 34.9697 123.8 35.1748C123.973 35.3799 124.183 35.5417 124.429 35.6602C124.675 35.7741 124.955 35.8311 125.27 35.8311C125.666 35.8311 126.019 35.7513 126.329 35.5918C126.639 35.4323 126.908 35.2067 127.136 34.915L128.004 35.7559C127.845 35.9883 127.637 36.2116 127.382 36.4258C127.127 36.6354 126.815 36.8063 126.446 36.9385C126.081 37.0706 125.657 37.1367 125.174 37.1367ZM131.153 31.1826V37H129.505V29.6035H131.057L131.153 31.1826ZM130.859 33.0283L130.326 33.0215C130.33 32.4974 130.403 32.0166 130.545 31.5791C130.69 31.1416 130.891 30.7656 131.146 30.4512C131.406 30.1367 131.716 29.8952 132.076 29.7266C132.436 29.5534 132.837 29.4668 133.279 29.4668C133.634 29.4668 133.956 29.5169 134.243 29.6172C134.534 29.7129 134.783 29.8701 134.988 30.0889C135.198 30.3076 135.357 30.5924 135.466 30.9434C135.576 31.2897 135.63 31.7158 135.63 32.2217V37H133.976V32.2148C133.976 31.8594 133.924 31.5791 133.819 31.374C133.719 31.1644 133.571 31.0163 133.375 30.9297C133.183 30.8385 132.944 30.793 132.657 30.793C132.374 30.793 132.121 30.8522 131.898 30.9707C131.675 31.0892 131.486 31.251 131.331 31.4561C131.18 31.6611 131.064 31.8981 130.982 32.167C130.9 32.4359 130.859 32.723 130.859 33.0283ZM140.434 35.8242C140.702 35.8242 140.944 35.7718 141.158 35.667C141.377 35.5576 141.552 35.4072 141.685 35.2158C141.821 35.0244 141.896 34.8034 141.91 34.5527H143.462C143.453 35.0312 143.312 35.4665 143.038 35.8584C142.765 36.2503 142.402 36.5625 141.951 36.7949C141.5 37.0228 141.001 37.1367 140.454 37.1367C139.889 37.1367 139.397 37.041 138.978 36.8496C138.558 36.6536 138.21 36.3848 137.932 36.043C137.654 35.7012 137.444 35.307 137.303 34.8604C137.166 34.4137 137.098 33.9352 137.098 33.4248V33.1855C137.098 32.6751 137.166 32.1966 137.303 31.75C137.444 31.2988 137.654 30.9023 137.932 30.5605C138.21 30.2188 138.558 29.9521 138.978 29.7607C139.397 29.5648 139.887 29.4668 140.447 29.4668C141.04 29.4668 141.559 29.5853 142.006 29.8223C142.452 30.0547 142.803 30.3805 143.059 30.7998C143.318 31.2145 143.453 31.6976 143.462 32.249H141.91C141.896 31.9756 141.828 31.7295 141.705 31.5107C141.587 31.2874 141.418 31.1097 141.199 30.9775C140.985 30.8454 140.728 30.7793 140.427 30.7793C140.094 30.7793 139.818 30.8477 139.6 30.9844C139.381 31.1165 139.21 31.2988 139.087 31.5312C138.964 31.7591 138.875 32.0166 138.82 32.3037C138.77 32.5863 138.745 32.8802 138.745 33.1855V33.4248C138.745 33.7301 138.77 34.0264 138.82 34.3135C138.87 34.6006 138.957 34.8581 139.08 35.0859C139.208 35.3092 139.381 35.4893 139.6 35.626C139.818 35.7581 140.096 35.8242 140.434 35.8242ZM148.087 37.1367C147.54 37.1367 147.046 37.0479 146.604 36.8701C146.166 36.6878 145.793 36.4349 145.483 36.1113C145.177 35.7878 144.943 35.4072 144.779 34.9697C144.615 34.5322 144.533 34.0605 144.533 33.5547V33.2812C144.533 32.7025 144.617 32.1784 144.786 31.709C144.954 31.2396 145.189 30.8385 145.49 30.5059C145.79 30.1686 146.146 29.9111 146.556 29.7334C146.966 29.5557 147.411 29.4668 147.889 29.4668C148.418 29.4668 148.88 29.5557 149.277 29.7334C149.673 29.9111 150.001 30.1618 150.261 30.4854C150.525 30.8044 150.721 31.1849 150.849 31.627C150.981 32.069 151.047 32.5566 151.047 33.0898V33.7939H145.332V32.6113H149.42V32.4814C149.411 32.1852 149.352 31.9072 149.243 31.6475C149.138 31.3877 148.976 31.1781 148.757 31.0186C148.538 30.859 148.247 30.7793 147.882 30.7793C147.609 30.7793 147.365 30.8385 147.151 30.957C146.941 31.071 146.766 31.2373 146.624 31.4561C146.483 31.6748 146.374 31.9391 146.296 32.249C146.223 32.5544 146.187 32.8984 146.187 33.2812V33.5547C146.187 33.8783 146.23 34.179 146.317 34.457C146.408 34.7305 146.54 34.9697 146.713 35.1748C146.886 35.3799 147.096 35.5417 147.342 35.6602C147.588 35.7741 147.869 35.8311 148.183 35.8311C148.579 35.8311 148.933 35.7513 149.243 35.5918C149.552 35.4323 149.821 35.2067 150.049 34.915L150.917 35.7559C150.758 35.9883 150.551 36.2116 150.295 36.4258C150.04 36.6354 149.728 36.8063 149.359 36.9385C148.994 37.0706 148.57 37.1367 148.087 37.1367ZM156.582 34.9971C156.582 34.833 156.541 34.6849 156.459 34.5527C156.377 34.416 156.22 34.293 155.987 34.1836C155.759 34.0742 155.422 33.974 154.975 33.8828C154.583 33.7962 154.223 33.6937 153.895 33.5752C153.572 33.4521 153.294 33.304 153.061 33.1309C152.829 32.9577 152.649 32.7526 152.521 32.5156C152.394 32.2786 152.33 32.0052 152.33 31.6953C152.33 31.3945 152.396 31.1097 152.528 30.8408C152.66 30.5719 152.849 30.335 153.096 30.1299C153.342 29.9248 153.64 29.763 153.991 29.6445C154.346 29.526 154.743 29.4668 155.18 29.4668C155.8 29.4668 156.331 29.5716 156.773 29.7812C157.22 29.9863 157.562 30.2666 157.799 30.6221C158.036 30.973 158.154 31.3695 158.154 31.8115H156.507C156.507 31.6156 156.457 31.4333 156.356 31.2646C156.261 31.0915 156.115 30.9525 155.919 30.8477C155.723 30.7383 155.477 30.6836 155.18 30.6836C154.898 30.6836 154.663 30.7292 154.476 30.8203C154.294 30.9069 154.157 31.0208 154.066 31.1621C153.98 31.3034 153.936 31.4583 153.936 31.627C153.936 31.75 153.959 31.8617 154.005 31.9619C154.055 32.0576 154.137 32.1465 154.251 32.2285C154.365 32.306 154.52 32.3789 154.716 32.4473C154.916 32.5156 155.167 32.5817 155.468 32.6455C156.033 32.764 156.518 32.9167 156.924 33.1035C157.334 33.2858 157.648 33.5228 157.867 33.8145C158.086 34.1016 158.195 34.4661 158.195 34.9082C158.195 35.2363 158.124 35.5371 157.983 35.8105C157.846 36.0794 157.646 36.3141 157.382 36.5146C157.117 36.7106 156.801 36.8633 156.431 36.9727C156.067 37.082 155.657 37.1367 155.201 37.1367C154.531 37.1367 153.964 37.0182 153.499 36.7812C153.034 36.5397 152.681 36.2321 152.439 35.8584C152.202 35.4801 152.084 35.0882 152.084 34.6826H153.677C153.695 34.988 153.779 35.2318 153.929 35.4141C154.084 35.5918 154.276 35.7217 154.504 35.8037C154.736 35.8812 154.975 35.9199 155.221 35.9199C155.518 35.9199 155.766 35.8812 155.967 35.8037C156.167 35.7217 156.32 35.6123 156.425 35.4756C156.529 35.3343 156.582 35.1748 156.582 34.9971Z" fill="#61BB4B"/>
    <defs>
    <linearGradient id="paint0_linear_3_30" x1="7.71729" y1="19.9258" x2="28.9398" y2="14.6161" gradientUnits="userSpaceOnUse">
    <stop stop-color="#00A755"/>
    <stop offset="1" stop-color="#1AC1ED" stop-opacity="0.756863"/>
    </linearGradient>
    <linearGradient id="paint1_linear_3_30" x1="56.2579" y1="35.8478" x2="19.1863" y2="0.84642" gradientUnits="userSpaceOnUse">
    <stop stop-color="#363894"/>
    <stop offset="0.219608" stop-color="#5BB84C"/>
    <stop offset="0.6" stop-color="#00AFEF"/>
    <stop offset="1" stop-color="#00AFEF"/>
    </linearGradient>
    <linearGradient id="paint2_linear_3_30" x1="45.9546" y1="32.9215" x2="9.90859" y2="2.96226" gradientUnits="userSpaceOnUse">
    <stop stop-color="#8480AA"/>
    <stop offset="1" stop-color="#030BDB"/>
    </linearGradient>
    </defs>
    </svg>